<svg width="260" height="70" viewBox="0 0 260 70" fill="none" xmlns="http://www.w3.org/2000/svg">
<path d="M161.749 6.54378C161.636 6.12268 161.444 5.72818 161.182 5.38236C160.921 5.03561 160.596 4.74334 160.225 4.52146C159.84 4.29069 159.414 4.13988 158.971 4.07776C158.349 3.98916 157.718 4.0754 157.145 4.32647C157.008 4.38653 156.876 4.45516 156.749 4.53237C156.649 4.42282 156.541 4.32004 156.427 4.22404C155.946 3.82273 155.364 3.56359 154.743 3.47499C154.296 3.4112 153.849 3.43636 153.415 3.55064C152.996 3.6605 152.605 3.84885 152.255 4.10962C151.907 4.36818 151.612 4.69328 151.387 5.06653C151.153 5.45472 151.001 5.88072 150.936 6.33227C150.876 6.75824 150.898 7.21433 151.004 7.69014C151.092 8.08781 151.241 8.50835 151.445 8.94082C151.77 9.62528 152.245 10.3587 152.857 11.1207C153.87 12.3837 154.921 13.3062 154.966 13.3439L155.237 13.5809C155.357 13.6855 155.527 13.7097 155.672 13.6429L155.998 13.4911C156.052 13.4661 157.317 12.8751 158.644 11.9458C159.444 11.3851 160.106 10.8137 160.608 10.2472C160.926 9.8891 161.187 9.52696 161.382 9.16973C161.616 8.74244 161.765 8.31079 161.826 7.88482C161.892 7.43345 161.865 6.98194 161.749 6.54378V6.54378Z" fill="#FB7185"/>
<path d="M64.5473 8.24115C64.2998 8.0659 64.0214 7.94046 63.7277 7.87185C63.4334 7.80278 63.1295 7.7911 62.8324 7.83743C62.524 7.88507 62.229 7.99401 61.9643 8.15793C61.5925 8.38703 61.2934 8.71389 61.0984 9.10331C61.0517 9.19647 61.0117 9.29189 60.9782 9.38959C60.8759 9.37554 60.7727 9.36841 60.6685 9.36819C60.233 9.36728 59.8065 9.48748 59.4347 9.71659C59.1669 9.88156 58.9396 10.0935 58.7581 10.3478C58.5826 10.5932 58.4573 10.8679 58.3863 11.163C58.3151 11.4561 58.302 11.7613 58.3476 12.0611C58.3951 12.3729 58.5033 12.6684 58.6698 12.9386C58.8268 13.1935 59.0417 13.4275 59.31 13.6349C59.5344 13.8082 59.8008 13.9671 60.1027 14.1074C60.5807 14.3292 61.1613 14.51 61.8275 14.6454C62.9316 14.8701 63.9039 14.8961 63.9446 14.8963L64.195 14.9025C64.3058 14.905 64.4076 14.8423 64.4552 14.7422L64.5623 14.5157C64.5799 14.4785 64.9936 13.5995 65.2901 12.5119C65.4687 11.856 65.5683 11.2561 65.5851 10.7294C65.5955 10.3967 65.5741 10.0867 65.5195 9.80889C65.4548 9.47598 65.3425 9.17879 65.1854 8.92393C65.0197 8.65329 64.8044 8.42376 64.5473 8.24115V8.24115Z" fill="#FB7185"/>
<path d="M50.3318 50.9475C50.3123 50.5926 50.2245 50.2455 50.0733 49.9258C49.9222 49.6054 49.7113 49.3178 49.4522 49.0789C49.1837 48.8305 48.8685 48.6391 48.5251 48.5157C48.0437 48.3413 47.5255 48.305 47.0259 48.4099C46.9063 48.435 46.7895 48.4678 46.6755 48.5083C46.6138 48.4042 46.545 48.3042 46.4693 48.2084C46.1526 47.8079 45.7313 47.5041 45.2499 47.3298C44.9033 47.2042 44.543 47.15 44.1772 47.1689C43.8239 47.1867 43.4805 47.2719 43.1578 47.4218C42.8367 47.5702 42.547 47.7806 42.3051 48.0411C42.0534 48.312 41.861 48.6268 41.7344 48.9766C41.6149 49.3066 41.5568 49.6745 41.562 50.072C41.5665 50.4043 41.6149 50.7648 41.7061 51.1442C41.851 51.7447 42.1084 52.4096 42.4697 53.1199C43.0684 54.2972 43.7534 55.2088 43.7829 55.2463L43.9598 55.4808C44.0383 55.5843 44.1701 55.632 44.2967 55.6027L44.5826 55.5359C44.6297 55.5249 45.7381 55.2639 46.9528 54.7431C47.6851 54.4288 48.3085 54.0829 48.8043 53.7143C49.1173 53.4813 49.3862 53.2357 49.6014 52.983C49.8599 52.6809 50.0508 52.3611 50.1703 52.0312C50.2979 51.6817 50.3517 51.3167 50.3318 50.9475V50.9475Z" fill="#FB7185"/>
<path d="M245.919 21.8868C245.605 22.1868 245.087 21.9793 245.035 21.5325L244.48 16.7624L240.145 14.5521C239.74 14.3451 239.74 13.7462 240.145 13.5608L244.64 11.4952L245.498 6.72478C245.575 6.29477 246.086 6.14258 246.386 6.46009L249.715 9.98334L254.608 9.25181C255.048 9.18531 255.376 9.68659 255.149 10.0817L252.732 14.3037L254.878 18.5998C255.079 19.0021 254.759 19.4597 254.332 19.3801L249.48 18.4718L245.918 21.8871L245.919 21.8868Z" fill="#FBBF24"/>
<path d="M168.153 59.4496C167.979 59.6914 167.602 59.6158 167.512 59.3202L166.542 56.1647L163.336 55.2105C163.037 55.121 162.962 54.7161 163.213 54.5404L165.994 52.5839L165.98 49.2521C165.979 48.9517 166.305 48.7852 166.547 48.9624L169.237 50.9295L172.453 49.8253C172.743 49.7255 173.027 50.0235 172.923 50.3189L171.815 53.4742L173.801 56.1111C173.987 56.358 173.827 56.7073 173.529 56.7067L170.135 56.6972L168.153 59.4499L168.153 59.4496Z" fill="#FBBF24"/>
<path d="M82.6781 68.1846C82.4326 68.5248 81.9028 68.4184 81.7753 68.0025L80.4113 63.5635L75.9017 62.2213C75.4803 62.0954 75.3753 61.5258 75.7279 61.2786L79.6409 58.5263L79.6203 53.8393C79.6186 53.4168 80.0777 53.1825 80.4188 53.4319L84.2018 56.199L88.7266 54.6457C89.1337 54.5053 89.5333 54.9246 89.387 55.3401L87.8284 59.7788L90.6223 63.4882C90.8842 63.8355 90.6594 64.3269 90.2399 64.326L85.4661 64.3127L82.6772 68.185L82.6781 68.1846Z" fill="#FBBF24"/>
<path d="M8.07568 12.4991C7.92159 12.7126 7.589 12.6458 7.50895 12.3848L6.65264 9.59807L3.82162 8.75543C3.55708 8.67642 3.49116 8.31885 3.71252 8.16364L6.16902 6.43581L6.15607 3.49342C6.15498 3.22817 6.4432 3.08111 6.65733 3.23764L9.03223 4.9748L11.8728 3.99968C12.1284 3.91152 12.3792 4.17472 12.2874 4.43557L11.3089 7.22209L13.0629 9.55077C13.2273 9.76879 13.0862 10.0773 12.8228 10.0767L9.82596 10.0684L8.07514 12.4993L8.07568 12.4991Z" fill="#FBBF24"/>
</svg>
