<svg width="1348" height="445" viewBox="0 0 1348 445" fill="none" xmlns="http://www.w3.org/2000/svg">
<path d="M84.2369 39.25C86.1125 42.4987 86.1125 46.5013 84.2369 49.75L68.9151 76.2881C67.0394 79.5368 63.5731 81.5381 59.8218 81.5381L29.1782 81.5381C25.4269 81.5381 21.9606 79.5368 20.0849 76.2881L4.76314 49.75C2.88749 46.5013 2.8875 42.4987 4.76314 39.25L20.0849 12.7119C21.9606 9.46315 25.4269 7.46187 29.1782 7.46187L59.8218 7.46187C63.5731 7.46187 67.0394 9.46316 68.9151 12.7119L84.2369 39.25Z" stroke="#CBD5E1" stroke-width="3"/>
<path d="M84.2369 128.25C86.1125 131.499 86.1125 135.501 84.2369 138.75L68.9151 165.288C67.0394 168.537 63.5731 170.538 59.8218 170.538L29.1782 170.538C25.4269 170.538 21.9606 168.537 20.0849 165.288L4.76314 138.75C2.88749 135.501 2.8875 131.499 4.76314 128.25L20.0849 101.712C21.9606 98.4632 25.4269 96.4619 29.1782 96.4619L59.8218 96.4619C63.5731 96.4619 67.0394 98.4632 68.9151 101.712L84.2369 128.25Z" stroke="#CBD5E1" stroke-width="3"/>
<path d="M84.2369 217.25C86.1125 220.499 86.1125 224.501 84.2369 227.75L68.9151 254.288C67.0394 257.537 63.5731 259.538 59.8218 259.538L29.1782 259.538C25.4269 259.538 21.9606 257.537 20.0849 254.288L4.76314 227.75C2.88749 224.501 2.8875 220.499 4.76314 217.25L20.0849 190.712C21.9606 187.463 25.4269 185.462 29.1782 185.462L59.8218 185.462C63.5731 185.462 67.0394 187.463 68.9151 190.712L84.2369 217.25Z" stroke="#CBD5E1" stroke-width="3"/>
<path d="M84.2369 306.25C86.1125 309.499 86.1125 313.501 84.2369 316.75L68.9151 343.288C67.0394 346.537 63.5731 348.538 59.8218 348.538L29.1782 348.538C25.4269 348.538 21.9606 346.537 20.0849 343.288L4.76314 316.75C2.88749 313.501 2.8875 309.499 4.76314 306.25L20.0849 279.712C21.9606 276.463 25.4269 274.462 29.1782 274.462L59.8218 274.462C63.5731 274.462 67.0394 276.463 68.9151 279.712L84.2369 306.25Z" stroke="#CBD5E1" stroke-width="3"/>
<path d="M84.2369 395.25C86.1125 398.499 86.1125 402.501 84.2369 405.75L68.9151 432.288C67.0394 435.537 63.5731 437.538 59.8218 437.538L29.1782 437.538C25.4269 437.538 21.9606 435.537 20.0849 432.288L4.76314 405.75C2.88749 402.501 2.8875 398.499 4.76314 395.25L20.0849 368.712C21.9606 365.463 25.4269 363.462 29.1782 363.462L59.8218 363.462C63.5731 363.462 67.0394 365.463 68.9151 368.712L84.2369 395.25Z" stroke="#CBD5E1" stroke-width="3"/>
<path d="M159.176 83.6447C160.911 86.6492 160.911 90.3508 159.176 93.3553L144.543 118.701C142.808 121.705 139.602 123.556 136.133 123.556L106.867 123.556C103.398 123.556 100.192 121.705 98.4571 118.701L83.8239 93.3553C82.0893 90.3508 82.0893 86.6492 83.824 83.6447L98.4571 58.2993C100.192 55.2948 103.398 53.4439 106.867 53.4439L136.133 53.4439C139.602 53.4439 142.808 55.2948 144.543 58.2993L159.176 83.6447Z" stroke="#CBD5E1" stroke-width="3.5"/>
<path d="M159.176 172.645C160.911 175.649 160.911 179.351 159.176 182.355L144.543 207.701C142.808 210.705 139.602 212.556 136.133 212.556L106.867 212.556C103.398 212.556 100.192 210.705 98.4571 207.701L83.8239 182.355C82.0893 179.351 82.0893 175.649 83.824 172.645L98.4571 147.299C100.192 144.295 103.398 142.444 106.867 142.444L136.133 142.444C139.602 142.444 142.808 144.295 144.543 147.299L159.176 172.645Z" stroke="#CBD5E1" stroke-width="3.5"/>
<path d="M159.176 261.645C160.911 264.649 160.911 268.351 159.176 271.355L144.543 296.701C142.808 299.705 139.602 301.556 136.133 301.556L106.867 301.556C103.398 301.556 100.192 299.705 98.4571 296.701L83.8239 271.355C82.0893 268.351 82.0893 264.649 83.824 261.645L98.4571 236.299C100.192 233.295 103.398 231.444 106.867 231.444L136.133 231.444C139.602 231.444 142.808 233.295 144.543 236.299L159.176 261.645Z" stroke="#CBD5E1" stroke-width="3.5"/>
<path d="M159.176 350.645C160.911 353.649 160.911 357.351 159.176 360.355L144.543 385.701C142.808 388.705 139.602 390.556 136.133 390.556L106.867 390.556C103.398 390.556 100.192 388.705 98.4571 385.701L83.8239 360.355C82.0893 357.351 82.0893 353.649 83.824 350.645L98.4571 325.299C100.192 322.295 103.398 320.444 106.867 320.444L136.133 320.444C139.602 320.444 142.808 322.295 144.543 325.299L159.176 350.645Z" stroke="#CBD5E1" stroke-width="3.5"/>
<path d="M232.115 40.0393C233.709 42.7996 233.709 46.2004 232.115 48.9607L218.171 73.1134C216.577 75.8736 213.632 77.574 210.445 77.574L182.555 77.574C179.368 77.574 176.423 75.8736 174.829 73.1134L160.885 48.9607C159.291 46.2004 159.291 42.7996 160.885 40.0393L174.829 15.8866C176.423 13.1264 179.368 11.426 182.555 11.426L210.445 11.426C213.632 11.426 216.577 13.1264 218.171 15.8866L232.115 40.0393Z" stroke="#CBD5E1" stroke-width="4"/>
<path d="M232.115 129.039C233.709 131.8 233.709 135.2 232.115 137.961L218.171 162.113C216.577 164.874 213.632 166.574 210.445 166.574L182.555 166.574C179.368 166.574 176.423 164.874 174.829 162.113L160.885 137.961C159.291 135.2 159.291 131.8 160.885 129.039L174.829 104.887C176.423 102.126 179.368 100.426 182.555 100.426L210.445 100.426C213.632 100.426 216.577 102.126 218.171 104.887L232.115 129.039Z" stroke="#CBD5E1" stroke-width="4"/>
<path d="M232.115 218.039C233.709 220.8 233.709 224.2 232.115 226.961L218.171 251.113C216.577 253.874 213.632 255.574 210.445 255.574L182.555 255.574C179.368 255.574 176.423 253.874 174.829 251.113L160.885 226.961C159.291 224.2 159.291 220.8 160.885 218.039L174.829 193.887C176.423 191.126 179.368 189.426 182.555 189.426L210.445 189.426C213.632 189.426 216.577 191.126 218.171 193.887L232.115 218.039Z" stroke="#CBD5E1" stroke-width="4"/>
<path d="M232.115 307.039C233.709 309.8 233.709 313.2 232.115 315.961L218.171 340.113C216.577 342.874 213.632 344.574 210.445 344.574L182.555 344.574C179.368 344.574 176.423 342.874 174.829 340.113L160.885 315.961C159.291 313.2 159.291 309.8 160.885 307.039L174.829 282.887C176.423 280.126 179.368 278.426 182.555 278.426L210.445 278.426C213.632 278.426 216.577 280.126 218.171 282.887L232.115 307.039Z" stroke="#CBD5E1" stroke-width="4"/>
<path d="M232.115 396.039C233.709 398.8 233.709 402.2 232.115 404.961L218.171 429.113C216.577 431.874 213.632 433.574 210.445 433.574L182.555 433.574C179.368 433.574 176.423 431.874 174.829 429.113L160.885 404.961C159.291 402.2 159.291 398.8 160.885 396.039L174.829 371.887C176.423 369.126 179.368 367.426 182.555 367.426L210.445 367.426C213.632 367.426 216.577 369.126 218.171 371.887L232.115 396.039Z" stroke="#CBD5E1" stroke-width="4"/>
<path d="M307.054 84.434C308.507 86.95 308.507 90.05 307.054 92.566L293.798 115.526C292.346 118.042 289.661 119.592 286.756 119.592L260.244 119.592C257.339 119.592 254.654 118.042 253.202 115.526L239.946 92.566C238.493 90.05 238.493 86.95 239.946 84.434L253.202 61.474C254.654 58.958 257.339 57.408 260.244 57.408L286.756 57.408C289.661 57.408 292.346 58.958 293.798 61.474L307.054 84.434Z" stroke="#CBD5E1" stroke-width="4.5"/>
<path d="M307.054 173.434C308.507 175.95 308.507 179.05 307.054 181.566L293.798 204.526C292.346 207.042 289.661 208.592 286.756 208.592L260.244 208.592C257.339 208.592 254.654 207.042 253.202 204.526L239.946 181.566C238.493 179.05 238.493 175.95 239.946 173.434L253.202 150.474C254.654 147.958 257.339 146.408 260.244 146.408L286.756 146.408C289.661 146.408 292.346 147.958 293.798 150.474L307.054 173.434Z" stroke="#CBD5E1" stroke-width="4.5"/>
<path d="M307.054 262.434C308.507 264.95 308.507 268.05 307.054 270.566L293.798 293.526C292.346 296.042 289.661 297.592 286.756 297.592L260.244 297.592C257.339 297.592 254.654 296.042 253.202 293.526L239.946 270.566C238.493 268.05 238.493 264.95 239.946 262.434L253.202 239.474C254.654 236.958 257.339 235.408 260.244 235.408L286.756 235.408C289.661 235.408 292.346 236.958 293.798 239.474L307.054 262.434Z" stroke="#CBD5E1" stroke-width="4.5"/>
<path d="M307.054 351.434C308.507 353.95 308.507 357.05 307.054 359.566L293.798 382.526C292.346 385.042 289.661 386.592 286.756 386.592L260.244 386.592C257.339 386.592 254.654 385.042 253.202 382.526L239.946 359.566C238.493 357.05 238.493 353.95 239.946 351.434L253.202 328.474C254.654 325.958 257.339 324.408 260.244 324.408L286.756 324.408C289.661 324.408 292.346 325.958 293.798 328.474L307.054 351.434Z" stroke="#CBD5E1" stroke-width="4.5"/>
<path d="M379.994 40.8287C381.305 43.1005 381.305 45.8995 379.994 48.1714L367.426 69.9386C366.115 72.2104 363.691 73.6099 361.067 73.6099L335.933 73.6099C333.309 73.6099 330.885 72.2104 329.574 69.9386L317.006 48.1713C315.695 45.8995 315.695 43.1005 317.006 40.8286L329.574 19.0614C330.885 16.7896 333.309 15.3901 335.933 15.3901L361.067 15.3901C363.691 15.3901 366.115 16.7896 367.426 19.0614L379.994 40.8287Z" stroke="#CBD5E1" stroke-width="5"/>
<path d="M379.994 129.829C381.305 132.1 381.305 134.9 379.994 137.171L367.426 158.939C366.115 161.21 363.691 162.61 361.067 162.61L335.933 162.61C333.309 162.61 330.885 161.21 329.574 158.939L317.006 137.171C315.695 134.9 315.695 132.1 317.006 129.829L329.574 108.061C330.885 105.79 333.309 104.39 335.933 104.39L361.067 104.39C363.691 104.39 366.115 105.79 367.426 108.061L379.994 129.829Z" stroke="#CBD5E1" stroke-width="5"/>
<path d="M379.994 218.829C381.305 221.1 381.305 223.9 379.994 226.171L367.426 247.939C366.115 250.21 363.691 251.61 361.067 251.61L335.933 251.61C333.309 251.61 330.885 250.21 329.574 247.939L317.006 226.171C315.695 223.9 315.695 221.1 317.006 218.829L329.574 197.061C330.885 194.79 333.309 193.39 335.933 193.39L361.067 193.39C363.691 193.39 366.115 194.79 367.426 197.061L379.994 218.829Z" stroke="#CBD5E1" stroke-width="5"/>
<path d="M379.994 307.829C381.305 310.1 381.305 312.9 379.994 315.171L367.426 336.939C366.115 339.21 363.691 340.61 361.067 340.61L335.933 340.61C333.309 340.61 330.885 339.21 329.574 336.939L317.006 315.171C315.695 312.9 315.695 310.1 317.006 307.829L329.574 286.061C330.885 283.79 333.309 282.39 335.933 282.39L361.067 282.39C363.691 282.39 366.115 283.79 367.426 286.061L379.994 307.829Z" stroke="#CBD5E1" stroke-width="5"/>
<path d="M379.994 396.829C381.305 399.1 381.305 401.9 379.994 404.171L367.426 425.939C366.115 428.21 363.691 429.61 361.067 429.61L335.933 429.61C333.309 429.61 330.885 428.21 329.574 425.939L317.006 404.171C315.695 401.9 315.695 399.1 317.006 396.829L329.574 375.061C330.885 372.79 333.309 371.39 335.933 371.39L361.067 371.39C363.691 371.39 366.115 372.79 367.426 375.061L379.994 396.829Z" stroke="#CBD5E1" stroke-width="5"/>
<path d="M454.933 85.2233C456.103 87.2509 456.103 89.7491 454.933 91.7767L443.054 112.351C441.883 114.379 439.72 115.628 437.379 115.628L413.621 115.628C411.28 115.628 409.117 114.379 407.946 112.351L396.067 91.7767C394.897 89.7491 394.897 87.2509 396.067 85.2233L407.946 64.6488C409.117 62.6212 411.28 61.3721 413.621 61.3721L437.379 61.3721C439.72 61.3721 441.883 62.6212 443.054 64.6488L454.933 85.2233Z" stroke="#CBD5E1" stroke-width="5.5"/>
<path d="M454.933 174.223C456.103 176.251 456.103 178.749 454.933 180.777L443.054 201.351C441.883 203.379 439.72 204.628 437.379 204.628L413.621 204.628C411.28 204.628 409.117 203.379 407.946 201.351L396.067 180.777C394.897 178.749 394.897 176.251 396.067 174.223L407.946 153.649C409.117 151.621 411.28 150.372 413.621 150.372L437.379 150.372C439.72 150.372 441.883 151.621 443.054 153.649L454.933 174.223Z" stroke="#CBD5E1" stroke-width="5.5"/>
<path d="M454.933 263.223C456.103 265.251 456.103 267.749 454.933 269.777L443.054 290.351C441.883 292.379 439.72 293.628 437.379 293.628L413.621 293.628C411.28 293.628 409.117 292.379 407.946 290.351L396.067 269.777C394.897 267.749 394.897 265.251 396.067 263.223L407.946 242.649C409.117 240.621 411.28 239.372 413.621 239.372L437.379 239.372C439.72 239.372 441.883 240.621 443.054 242.649L454.933 263.223Z" stroke="#CBD5E1" stroke-width="5.5"/>
<path d="M454.933 352.223C456.103 354.251 456.103 356.749 454.933 358.777L443.054 379.351C441.883 381.379 439.72 382.628 437.379 382.628L413.621 382.628C411.28 382.628 409.117 381.379 407.946 379.351L396.067 358.777C394.897 356.749 394.897 354.251 396.067 352.223L407.946 331.649C409.117 329.621 411.28 328.372 413.621 328.372L437.379 328.372C439.72 328.372 441.883 329.621 443.054 331.649L454.933 352.223Z" stroke="#CBD5E1" stroke-width="5.5"/>
<path d="M527.872 41.618C528.902 43.4014 528.902 45.5986 527.872 47.382L516.682 66.7638C515.652 68.5472 513.749 69.6458 511.69 69.6458L489.31 69.6458C487.251 69.6458 485.348 68.5472 484.318 66.7638L473.128 47.382C472.098 45.5986 472.098 43.4014 473.128 41.618L484.318 22.2362C485.348 20.4528 487.251 19.3542 489.31 19.3542L511.69 19.3542C513.749 19.3542 515.652 20.4528 516.682 22.2362L527.872 41.618Z" stroke="#CBD5E1" stroke-width="6"/>
<path d="M527.872 130.618C528.902 132.401 528.902 134.599 527.872 136.382L516.682 155.764C515.652 157.547 513.749 158.646 511.69 158.646L489.31 158.646C487.251 158.646 485.348 157.547 484.318 155.764L473.128 136.382C472.098 134.599 472.098 132.401 473.128 130.618L484.318 111.236C485.348 109.453 487.251 108.354 489.31 108.354L511.69 108.354C513.749 108.354 515.652 109.453 516.682 111.236L527.872 130.618Z" stroke="#CBD5E1" stroke-width="6"/>
<path d="M527.872 219.618C528.902 221.401 528.902 223.599 527.872 225.382L516.682 244.764C515.652 246.547 513.749 247.646 511.69 247.646L489.31 247.646C487.251 247.646 485.348 246.547 484.318 244.764L473.128 225.382C472.098 223.599 472.098 221.401 473.128 219.618L484.318 200.236C485.348 198.453 487.251 197.354 489.31 197.354L511.69 197.354C513.749 197.354 515.652 198.453 516.682 200.236L527.872 219.618Z" stroke="#CBD5E1" stroke-width="6"/>
<path d="M527.872 308.618C528.902 310.401 528.902 312.599 527.872 314.382L516.682 333.764C515.652 335.547 513.749 336.646 511.69 336.646L489.31 336.646C487.251 336.646 485.348 335.547 484.318 333.764L473.128 314.382C472.098 312.599 472.098 310.401 473.128 308.618L484.318 289.236C485.348 287.453 487.251 286.354 489.31 286.354L511.69 286.354C513.749 286.354 515.652 287.453 516.682 289.236L527.872 308.618Z" stroke="#CBD5E1" stroke-width="6"/>
<path d="M527.872 397.618C528.902 399.401 528.902 401.599 527.872 403.382L516.682 422.764C515.652 424.547 513.749 425.646 511.69 425.646L489.31 425.646C487.251 425.646 485.348 424.547 484.318 422.764L473.128 403.382C472.098 401.599 472.098 399.401 473.128 397.618L484.318 378.236C485.348 376.453 487.251 375.354 489.31 375.354L511.69 375.354C513.749 375.354 515.652 376.453 516.682 378.236L527.872 397.618Z" stroke="#CBD5E1" stroke-width="6"/>
<path d="M602.811 86.0126C603.7 87.5518 603.7 89.4482 602.811 90.9874L592.31 109.176C591.421 110.716 589.779 111.664 588.001 111.664L566.999 111.664C565.221 111.664 563.579 110.716 562.69 109.176L552.189 90.9874C551.3 89.4482 551.3 87.5518 552.189 86.0126L562.69 67.8236C563.579 66.2844 565.221 65.3362 566.999 65.3362L588.001 65.3362C589.779 65.3362 591.421 66.2844 592.31 67.8236L602.811 86.0126Z" stroke="#CBD5E1" stroke-width="6.5"/>
<path d="M602.811 175.013C603.7 176.552 603.7 178.448 602.811 179.987L592.31 198.176C591.421 199.716 589.779 200.664 588.001 200.664L566.999 200.664C565.221 200.664 563.579 199.716 562.69 198.176L552.189 179.987C551.3 178.448 551.3 176.552 552.189 175.013L562.69 156.824C563.579 155.284 565.221 154.336 566.999 154.336L588.001 154.336C589.779 154.336 591.421 155.284 592.31 156.824L602.811 175.013Z" stroke="#CBD5E1" stroke-width="6.5"/>
<path d="M602.811 264.013C603.7 265.552 603.7 267.448 602.811 268.987L592.31 287.176C591.421 288.716 589.779 289.664 588.001 289.664L566.999 289.664C565.221 289.664 563.579 288.716 562.69 287.176L552.189 268.987C551.3 267.448 551.3 265.552 552.189 264.013L562.69 245.824C563.579 244.284 565.221 243.336 566.999 243.336L588.001 243.336C589.779 243.336 591.421 244.284 592.31 245.824L602.811 264.013Z" stroke="#CBD5E1" stroke-width="6.5"/>
<path d="M602.811 353.013C603.7 354.552 603.7 356.448 602.811 357.987L592.31 376.176C591.421 377.716 589.779 378.664 588.001 378.664L566.999 378.664C565.221 378.664 563.579 377.716 562.69 376.176L552.189 357.987C551.3 356.448 551.3 354.552 552.189 353.013L562.69 334.824C563.579 333.284 565.221 332.336 566.999 332.336L588.001 332.336C589.779 332.336 591.421 333.284 592.31 334.824L602.811 353.013Z" stroke="#CBD5E1" stroke-width="6.5"/>
<path d="M675.75 42.4073C676.498 43.7023 676.498 45.2977 675.75 46.5927L665.937 63.589C665.19 64.884 663.808 65.6817 662.313 65.6817L642.687 65.6817C641.192 65.6817 639.81 64.884 639.062 63.589L629.25 46.5927C628.502 45.2977 628.502 43.7023 629.25 42.4073L639.062 25.411C639.81 24.116 641.192 23.3183 642.687 23.3183L662.313 23.3183C663.808 23.3183 665.19 24.116 665.937 25.411L675.75 42.4073Z" stroke="#CBD5E1" stroke-width="7"/>
<path d="M675.75 131.407C676.498 132.702 676.498 134.298 675.75 135.593L665.937 152.589C665.19 153.884 663.808 154.682 662.313 154.682L642.687 154.682C641.192 154.682 639.81 153.884 639.062 152.589L629.25 135.593C628.502 134.298 628.502 132.702 629.25 131.407L639.062 114.411C639.81 113.116 641.192 112.318 642.687 112.318L662.313 112.318C663.808 112.318 665.19 113.116 665.937 114.411L675.75 131.407Z" stroke="#CBD5E1" stroke-width="7"/>
<path d="M675.75 220.407C676.498 221.702 676.498 223.298 675.75 224.593L665.937 241.589C665.19 242.884 663.808 243.682 662.313 243.682L642.687 243.682C641.192 243.682 639.81 242.884 639.063 241.589L629.25 224.593C628.502 223.298 628.502 221.702 629.25 220.407L639.063 203.411C639.81 202.116 641.192 201.318 642.687 201.318L662.313 201.318C663.808 201.318 665.19 202.116 665.937 203.411L675.75 220.407Z" stroke="#CBD5E1" stroke-width="7"/>
<path d="M675.75 309.407C676.498 310.702 676.498 312.298 675.75 313.593L665.937 330.589C665.19 331.884 663.808 332.682 662.313 332.682L642.687 332.682C641.192 332.682 639.81 331.884 639.063 330.589L629.25 313.593C628.502 312.298 628.502 310.702 629.25 309.407L639.063 292.411C639.81 291.116 641.192 290.318 642.687 290.318L662.313 290.318C663.808 290.318 665.19 291.116 665.937 292.411L675.75 309.407Z" stroke="#CBD5E1" stroke-width="7"/>
<path d="M675.75 398.407C676.498 399.702 676.498 401.298 675.75 402.593L665.937 419.589C665.19 420.884 663.808 421.682 662.313 421.682L642.687 421.682C641.192 421.682 639.81 420.884 639.063 419.589L629.25 402.593C628.502 401.298 628.502 399.702 629.25 398.407L639.063 381.411C639.81 380.116 641.192 379.318 642.687 379.318L662.313 379.318C663.808 379.318 665.19 380.116 665.937 381.411L675.75 398.407Z" stroke="#CBD5E1" stroke-width="7"/>
<path d="M750.69 86.802C751.296 87.8527 751.296 89.1473 750.69 90.198L741.565 106.002C740.959 107.052 739.838 107.7 738.624 107.7L720.376 107.7C719.162 107.7 718.041 107.052 717.435 106.002L708.31 90.198C707.704 89.1473 707.704 87.8527 708.31 86.802L717.435 70.9984C718.041 69.9476 719.162 69.3003 720.376 69.3003L738.624 69.3003C739.838 69.3003 740.959 69.9476 741.565 70.9984L750.69 86.802Z" stroke="#CBD5E1" stroke-width="7.5"/>
<path d="M750.69 175.802C751.296 176.853 751.296 178.147 750.69 179.198L741.565 195.002C740.959 196.052 739.838 196.7 738.624 196.7L720.376 196.7C719.162 196.7 718.041 196.052 717.435 195.002L708.31 179.198C707.704 178.147 707.704 176.853 708.31 175.802L717.435 159.998C718.041 158.948 719.162 158.3 720.376 158.3L738.624 158.3C739.838 158.3 740.959 158.948 741.565 159.998L750.69 175.802Z" stroke="#CBD5E1" stroke-width="7.5"/>
<path d="M750.69 264.802C751.296 265.853 751.296 267.147 750.69 268.198L741.565 284.002C740.959 285.052 739.838 285.7 738.624 285.7L720.376 285.7C719.162 285.7 718.041 285.052 717.435 284.002L708.31 268.198C707.704 267.147 707.704 265.853 708.31 264.802L717.435 248.998C718.041 247.948 719.162 247.3 720.376 247.3L738.624 247.3C739.838 247.3 740.959 247.948 741.565 248.998L750.69 264.802Z" stroke="#CBD5E1" stroke-width="7.5"/>
<path d="M750.69 353.802C751.296 354.853 751.296 356.147 750.69 357.198L741.565 373.002C740.959 374.052 739.838 374.7 738.624 374.7L720.376 374.7C719.162 374.7 718.041 374.052 717.435 373.002L708.31 357.198C707.704 356.147 707.704 354.853 708.31 353.802L717.435 337.998C718.041 336.948 719.162 336.3 720.376 336.3L738.624 336.3C739.838 336.3 740.959 336.948 741.565 337.998L750.69 353.802Z" stroke="#CBD5E1" stroke-width="7.5"/>
<path d="M823.629 43.1966C824.094 44.0032 824.094 44.9968 823.629 45.8034L815.193 60.4143C814.727 61.2208 813.867 61.7176 812.936 61.7176L796.064 61.7176C795.133 61.7176 794.273 61.2208 793.807 60.4143L785.371 45.8034L781.907 47.8034L785.371 45.8034C784.906 44.9968 784.906 44.0032 785.371 43.1966L793.807 28.5857C794.273 27.7792 795.133 27.2824 796.064 27.2824L812.936 27.2824C813.867 27.2824 814.727 27.7792 815.193 28.5857L823.629 43.1966Z" stroke="#CBD5E1" stroke-width="8"/>
<path d="M823.629 132.197C824.094 133.003 824.094 133.997 823.629 134.803L815.193 149.414C814.727 150.221 813.867 150.718 812.936 150.718L796.064 150.718C795.133 150.718 794.273 150.221 793.807 149.414L785.371 134.803C784.906 133.997 784.906 133.003 785.371 132.197L793.807 117.586C794.273 116.779 795.133 116.282 796.064 116.282L812.936 116.282C813.867 116.282 814.727 116.779 815.193 117.586L823.629 132.197Z" stroke="#CBD5E1" stroke-width="8"/>
<path d="M823.629 221.197C824.094 222.003 824.094 222.997 823.629 223.803L815.193 238.414C814.727 239.221 813.867 239.718 812.936 239.718L796.064 239.718C795.133 239.718 794.273 239.221 793.807 238.414L785.371 223.803L781.907 225.803L785.371 223.803C784.906 222.997 784.906 222.003 785.371 221.197L793.807 206.586C794.273 205.779 795.133 205.282 796.064 205.282L812.936 205.282C813.867 205.282 814.727 205.779 815.193 206.586L823.629 221.197Z" stroke="#CBD5E1" stroke-width="8"/>
<path d="M823.629 310.197C824.094 311.003 824.094 311.997 823.629 312.803L815.193 327.414C814.727 328.221 813.867 328.718 812.936 328.718L796.064 328.718C795.133 328.718 794.273 328.221 793.807 327.414L785.371 312.803L781.907 314.803L785.371 312.803C784.906 311.997 784.906 311.003 785.371 310.197L793.807 295.586C794.273 294.779 795.133 294.282 796.064 294.282L812.936 294.282C813.867 294.282 814.727 294.779 815.193 295.586L823.629 310.197Z" stroke="#CBD5E1" stroke-width="8"/>
<path d="M823.629 399.197C824.094 400.003 824.094 400.997 823.629 401.803L815.193 416.414C814.727 417.221 813.867 417.718 812.936 417.718L796.064 417.718C795.133 417.718 794.273 417.221 793.807 416.414L785.371 401.803L781.907 403.803L785.371 401.803C784.906 400.997 784.906 400.003 785.371 399.197L793.807 384.586C794.273 383.779 795.133 383.282 796.064 383.282L812.936 383.282C813.867 383.282 814.727 383.779 815.193 384.586L823.629 399.197Z" stroke="#CBD5E1" stroke-width="8"/>
<path d="M898.568 87.5913C898.893 88.1536 898.893 88.8464 898.568 89.4087L890.821 102.827C890.496 103.389 889.896 103.736 889.247 103.736L873.753 103.736C873.104 103.736 872.504 103.389 872.179 102.827L864.432 89.4087C864.107 88.8464 864.107 88.1536 864.432 87.5913L872.179 74.1731C872.504 73.6108 873.104 73.2644 873.753 73.2644L889.247 73.2644C889.896 73.2644 890.496 73.6108 890.821 74.1731L898.568 87.5913L902.248 85.4663L898.568 87.5913Z" stroke="#CBD5E1" stroke-width="8.5"/>
<path d="M898.568 176.591C898.893 177.154 898.893 177.846 898.568 178.409L890.821 191.827C890.496 192.389 889.896 192.736 889.247 192.736L873.753 192.736C873.104 192.736 872.504 192.389 872.179 191.827L864.432 178.409C864.107 177.846 864.107 177.154 864.432 176.591L872.179 163.173C872.504 162.611 873.104 162.264 873.753 162.264L889.247 162.264C889.896 162.264 890.496 162.611 890.821 163.173L898.568 176.591Z" stroke="#CBD5E1" stroke-width="8.5"/>
<path d="M898.568 265.591C898.893 266.154 898.893 266.846 898.568 267.409L890.821 280.827C890.496 281.389 889.896 281.736 889.247 281.736L873.753 281.736C873.104 281.736 872.504 281.389 872.179 280.827L864.432 267.409C864.107 266.846 864.107 266.154 864.432 265.591L872.179 252.173C872.504 251.611 873.104 251.264 873.753 251.264L889.247 251.264C889.896 251.264 890.496 251.611 890.821 252.173L898.568 265.591Z" stroke="#CBD5E1" stroke-width="8.5"/>
<path d="M898.568 354.591C898.893 355.154 898.893 355.846 898.568 356.409L890.821 369.827C890.496 370.389 889.896 370.736 889.247 370.736L873.753 370.736C873.104 370.736 872.504 370.389 872.179 369.827L864.432 356.409C864.107 355.846 864.107 355.154 864.432 354.591L872.179 341.173C872.504 340.611 873.104 340.264 873.753 340.264L889.247 340.264C889.896 340.264 890.496 340.611 890.821 341.173L898.568 354.591Z" stroke="#CBD5E1" stroke-width="8.5"/>
<path d="M971.508 43.986C971.691 44.304 971.691 44.696 971.508 45.014L964.449 57.2395C964.266 57.5576 963.926 57.7535 963.559 57.7535L949.442 57.7535C949.075 57.7535 948.735 57.5576 948.552 57.2395L941.493 45.014C941.31 44.696 941.31 44.304 941.493 43.986L948.552 31.7605L944.655 29.5105L948.552 31.7605C948.735 31.4424 949.075 31.2465 949.442 31.2465L963.559 31.2465C963.926 31.2465 964.266 31.4424 964.449 31.7605L971.508 43.986Z" stroke="#CBD5E1" stroke-width="9"/>
<path d="M971.508 132.986C971.691 133.304 971.691 133.696 971.508 134.014L964.449 146.239C964.266 146.558 963.926 146.754 963.559 146.754L949.442 146.754C949.075 146.754 948.735 146.558 948.552 146.239L941.493 134.014C941.31 133.696 941.31 133.304 941.493 132.986L948.552 120.761L944.655 118.511L948.552 120.761C948.735 120.442 949.075 120.246 949.442 120.246L963.559 120.246C963.926 120.246 964.266 120.442 964.449 120.761L971.508 132.986Z" stroke="#CBD5E1" stroke-width="9"/>
<path d="M971.508 221.986C971.691 222.304 971.691 222.696 971.508 223.014L964.449 235.239C964.266 235.558 963.926 235.754 963.559 235.754L949.442 235.754C949.075 235.754 948.735 235.558 948.552 235.239L941.493 223.014C941.31 222.696 941.31 222.304 941.493 221.986L948.552 209.761L944.655 207.511L948.552 209.761C948.735 209.442 949.075 209.246 949.442 209.246L963.559 209.246C963.926 209.246 964.266 209.442 964.449 209.761L971.508 221.986Z" stroke="#CBD5E1" stroke-width="9"/>
<path d="M971.507 310.986C971.691 311.304 971.691 311.696 971.507 312.014L964.449 324.239C964.265 324.557 963.926 324.753 963.559 324.753L949.442 324.753C949.075 324.753 948.735 324.557 948.552 324.239L941.493 312.014C941.31 311.696 941.31 311.304 941.493 310.986L948.552 298.76C948.735 298.442 949.075 298.246 949.442 298.246L963.559 298.246C963.926 298.246 964.265 298.442 964.449 298.76L971.507 310.986Z" stroke="#CBD5E1" stroke-width="9"/>
<path d="M971.508 399.986C971.691 400.304 971.691 400.696 971.508 401.014L964.449 413.24C964.265 413.558 963.926 413.754 963.559 413.754L949.442 413.754C949.074 413.754 948.735 413.558 948.551 413.24L941.493 401.014C941.309 400.696 941.309 400.304 941.493 399.986L948.551 387.761L944.654 385.511L948.551 387.761C948.735 387.442 949.074 387.247 949.442 387.247L963.559 387.247C963.926 387.247 964.265 387.442 964.449 387.761L971.508 399.986Z" stroke="#CBD5E1" stroke-width="9"/>
<path d="M1046.45 88.3806C1046.49 88.4545 1046.49 88.5455 1046.45 88.6194L1040.08 99.6521C1040.03 99.726 1039.96 99.7715 1039.87 99.7715L1027.13 99.7715C1027.04 99.7715 1026.97 99.726 1026.92 99.6521L1020.55 88.6194C1020.51 88.5455 1020.51 88.4545 1020.55 88.3806L1026.92 77.3479C1026.97 77.274 1027.04 77.2285 1027.13 77.2285L1039.87 77.2285C1039.96 77.2285 1040.03 77.274 1040.08 77.3479L1046.45 88.3806Z" stroke="#CBD5E1" stroke-width="9.5"/>
<path d="M1046.45 177.381C1046.49 177.454 1046.49 177.546 1046.45 177.619L1040.08 188.652C1040.03 188.726 1039.96 188.771 1039.87 188.771L1027.13 188.771C1027.04 188.771 1026.97 188.726 1026.92 188.652L1020.55 177.619C1020.51 177.546 1020.51 177.454 1020.55 177.381L1026.92 166.348C1026.97 166.274 1027.04 166.229 1027.13 166.229L1039.87 166.229C1039.96 166.229 1040.03 166.274 1040.08 166.348L1046.45 177.381Z" stroke="#CBD5E1" stroke-width="9.5"/>
<path d="M1046.45 266.381C1046.49 266.454 1046.49 266.546 1046.45 266.619L1040.08 277.652C1040.03 277.726 1039.96 277.771 1039.87 277.771L1027.13 277.771C1027.04 277.771 1026.97 277.726 1026.92 277.652L1020.55 266.619C1020.51 266.546 1020.51 266.454 1020.55 266.381L1026.92 255.348C1026.97 255.274 1027.04 255.229 1027.13 255.229L1039.87 255.229C1039.96 255.229 1040.03 255.274 1040.08 255.348L1046.45 266.381Z" stroke="#CBD5E1" stroke-width="9.5"/>
<path d="M1046.45 355.381C1046.49 355.454 1046.49 355.546 1046.45 355.619L1040.08 366.652C1040.03 366.726 1039.96 366.771 1039.87 366.771L1027.13 366.771C1027.04 366.771 1026.97 366.726 1026.92 366.652L1020.55 355.619C1020.51 355.546 1020.51 355.454 1020.55 355.381L1026.92 344.348C1026.97 344.274 1027.04 344.229 1027.13 344.229L1039.87 344.229C1039.96 344.229 1040.03 344.274 1040.08 344.348L1046.45 355.381Z" stroke="#CBD5E1" stroke-width="9.5"/>
<path d="M1113.86 35.2106L1119.23 44.5L1113.86 53.7894L1103.14 53.7894L1097.77 44.5L1103.14 35.2106L1113.86 35.2106ZM1119.39 44.7746L1119.39 44.7753L1119.39 44.7746Z" stroke="#CBD5E1" stroke-width="10"/>
<path d="M1113.86 124.211L1119.23 133.5L1113.86 142.79L1103.14 142.79L1097.77 133.5L1103.14 124.211L1113.86 124.211Z" stroke="#CBD5E1" stroke-width="10"/>
<path d="M1113.86 213.211L1119.23 222.5L1113.86 231.789L1103.14 231.789L1097.77 222.5L1103.14 213.211L1113.86 213.211Z" stroke="#CBD5E1" stroke-width="10"/>
<path d="M1113.86 302.211L1119.23 311.5L1113.86 320.789L1103.14 320.789L1097.77 311.5L1103.14 302.211L1113.86 302.211ZM1119.39 311.775L1119.39 311.775L1119.39 311.775Z" stroke="#CBD5E1" stroke-width="10"/>
<path d="M1113.86 391.211L1119.23 400.5L1113.86 409.789L1103.14 409.789L1097.77 400.5L1103.14 391.211L1113.86 391.211Z" stroke="#CBD5E1" stroke-width="10"/>
<path d="M1189.72 81.1926L1193.94 88.5L1189.72 95.8074L1181.28 95.8074L1177.06 88.5L1181.28 81.1926L1189.72 81.1926Z" stroke="#CBD5E1" stroke-width="10.5"/>
<path d="M1189.72 170.193L1193.94 177.5L1189.72 184.807L1181.28 184.807L1177.06 177.5L1181.28 170.193L1189.72 170.193ZM1181.67 185.477L1181.67 185.476C1181.67 185.476 1181.67 185.477 1181.67 185.477L1180.51 186.147L1181.67 185.477Z" stroke="#CBD5E1" stroke-width="10.5"/>
<path d="M1189.72 259.193L1193.94 266.5L1189.72 273.807L1181.28 273.807L1177.06 266.5L1181.28 259.193L1189.72 259.193Z" stroke="#CBD5E1" stroke-width="10.5"/>
<path d="M1189.72 348.193L1193.94 355.5L1189.72 362.807L1181.28 362.807L1177.06 355.5L1181.28 348.193L1189.72 348.193Z" stroke="#CBD5E1" stroke-width="10.5"/>
<path d="M1263.57 39.1747L1266.65 44.5L1263.57 49.8253L1257.43 49.8253L1254.35 44.5L1257.43 39.1747L1263.57 39.1747Z" stroke="#CBD5E1" stroke-width="11"/>
<path d="M1263.57 128.175L1266.65 133.5L1263.57 138.825L1257.43 138.825L1254.35 133.5L1257.43 128.175L1263.57 128.175Z" stroke="#CBD5E1" stroke-width="11"/>
<path d="M1263.57 217.175L1266.65 222.5L1263.57 227.825L1257.43 227.825L1254.35 222.5L1257.43 217.175L1263.57 217.175Z" stroke="#CBD5E1" stroke-width="11"/>
<path d="M1263.57 306.175L1266.65 311.5L1263.57 316.825L1257.43 316.825L1254.35 311.5L1257.43 306.175L1263.57 306.175Z" stroke="#CBD5E1" stroke-width="11"/>
<path d="M1263.57 395.175L1266.65 400.5L1263.57 405.825L1257.43 405.825L1254.35 400.5L1257.43 395.175L1263.57 395.175Z" stroke="#CBD5E1" stroke-width="11"/>
<path d="M1340.15 83.9067L1342.8 88.5L1340.15 93.0933L1334.85 93.0933L1332.2 88.5L1334.85 83.9067L1340.15 83.9067Z" stroke="#CBD5E1" stroke-width="9"/>
<path d="M1340.15 172.907L1342.8 177.5L1340.15 182.093L1334.85 182.093L1332.2 177.5L1334.85 172.907L1340.15 172.907Z" stroke="#CBD5E1" stroke-width="9"/>
<path d="M1340.15 261.907L1342.8 266.5L1340.15 271.093L1334.85 271.093L1332.2 266.5L1334.85 261.907L1340.15 261.907Z" stroke="#CBD5E1" stroke-width="9"/>
<path d="M1340.15 350.907L1342.8 355.5L1340.15 360.093L1334.85 360.093L1332.2 355.5L1334.85 350.907L1340.15 350.907Z" stroke="#CBD5E1" stroke-width="9"/>
</svg>
