<svg viewBox="0 0 320 460" fill="none" xmlns="http://www.w3.org/2000/svg">
<path fill="currentColor" d="M261.869 146.027C238.072 131.593 211.154 124.376 181.115 124.376C159.269 124.376 139.568 128.277 122.013 136.079C109.758 141.253 98.9297 147.948 89.5268 156.163C85.3319 159.828 78.1243 157.03 78.1243 151.459V45.4485C78.1243 40.0896 75.2654 35.1376 70.6243 32.4582L25.4995 6.40531C19.4995 2.9412 11.9995 7.27134 11.9995 14.1995V254.34C11.9995 259.7 14.8585 264.651 19.4996 267.331L66.1542 294.266C71.4129 297.302 78.0222 293.14 78.1198 287.068C78.4033 269.427 82.1831 251.82 90.413 236.144C98.9956 220.54 110.504 208.251 124.938 199.278C139.763 190.306 156.343 185.819 174.678 185.819C193.404 185.819 209.984 190.306 224.418 199.278C237.978 207.708 248.78 219.486 256.71 233.146C259.357 237.706 265.172 239.564 269.739 236.928L312.561 212.204C316.773 209.772 318.312 204.418 315.798 200.255C302.408 178.077 284.309 159.419 261.869 146.027Z" fill="black"/>
<path fill="currentColor" d="M228.78 377.203C224.94 379.916 224.882 385.908 228.955 388.259L274.776 414.714C279.182 417.258 284.745 416.78 288.416 413.26C299.12 402.996 308.208 391.262 315.818 378.538C318.315 374.363 316.776 369.011 312.564 366.58L270.004 342.012C265.401 339.355 259.538 341.267 256.898 345.879C249.855 358.185 240.349 369.027 228.78 377.203Z" fill="black"/>
<path fill="currentColor" d="M75.1985 425.24C75.1985 419.511 82.8367 416.751 86.9932 420.694C96.4973 429.709 107.585 437.048 120.257 442.71C138.983 450.902 159.269 454.999 181.115 454.999C196.836 454.999 211.671 453.072 225.622 449.22C230.516 447.868 231.106 441.463 226.709 438.924L25.4995 322.756C19.4995 319.292 11.9995 323.622 11.9995 330.55V414.841C11.9995 420.199 14.8577 425.151 19.4976 427.831L63.9475 453.502C68.9475 456.39 75.1985 452.782 75.1985 447.008V425.24Z" fill="black"/>
</svg>
