<svg width="500" height="500" viewBox="0 0 500 500" xmlns="http://www.w3.org/2000/svg">
<style>
  path { fill: black; }
  @media (prefers-color-scheme: dark) {
    path { fill: white; }
  }
</style>
<path d="M351.869 166.027C328.072 151.593 301.154 144.376 271.115 144.376C249.269 144.376 229.568 148.277 212.013 156.079C199.758 161.253 188.93 167.948 179.527 176.163C175.332 179.828 168.124 177.03 168.124 171.459V65.4485C168.124 60.0896 165.265 55.1376 160.624 52.4582L115.499 26.4053C109.499 22.9412 102 27.2713 102 34.1995V274.34C102 279.699 104.859 284.651 109.5 287.331L156.154 314.266C161.413 317.302 168.022 313.14 168.12 307.068C168.403 289.427 172.183 271.82 180.413 256.144C188.996 240.54 200.504 228.251 214.938 219.278C229.763 210.306 246.343 205.819 264.678 205.819C283.404 205.819 299.984 210.306 314.418 219.278C327.978 227.708 338.78 239.486 346.71 253.146C349.357 257.706 355.172 259.564 359.738 256.928L402.561 232.204C406.773 229.772 408.312 224.418 405.798 220.255C392.408 198.077 374.309 179.419 351.869 166.027Z" />
<path d="M318.78 397.203C314.94 399.916 314.882 405.908 318.955 408.259L364.776 434.714C369.182 437.258 374.745 436.78 378.416 433.26C389.12 422.996 398.208 411.262 405.818 398.538C408.315 394.363 406.776 389.011 402.564 386.58L360.004 362.012C355.401 359.355 349.538 361.267 346.898 365.879C339.855 378.185 330.349 389.027 318.78 397.203Z" />
<path d="M165.198 445.24C165.198 439.511 172.837 436.751 176.993 440.694C186.497 449.709 197.585 457.048 210.257 462.71C228.983 470.902 249.269 474.999 271.115 474.999C286.836 474.999 301.671 473.072 315.622 469.22C320.516 467.868 321.106 461.463 316.709 458.924L115.5 342.756C109.5 339.292 102 343.622 102 350.55V434.841C102 440.199 104.858 445.151 109.498 447.831L153.948 473.502C158.948 476.39 165.198 472.781 165.198 467.008V445.24Z" />
</svg>
