<svg width="250" height="116" viewBox="0 0 250 116" fill="none" xmlns="http://www.w3.org/2000/svg">
<path d="M61.7897 40.1239C56.9526 37.0366 51.4811 35.493 45.3753 35.493C40.9346 35.493 36.9301 36.3274 33.3618 37.9962C30.8709 39.1028 28.6698 40.5347 26.7586 42.2919C25.9059 43.0758 24.4408 42.4772 24.4408 41.2857V18.6116C24.4408 17.4654 23.8597 16.4062 22.9164 15.8331L13.7441 10.2608C12.5245 9.51985 11 10.446 11 11.9278V63.2906C11 64.4368 11.5811 65.4959 12.5245 66.069L22.0077 71.8301C23.0766 72.4795 24.4201 71.5892 24.4399 70.2906C24.4975 66.5175 25.2658 62.7516 26.9387 59.3987C28.6832 56.061 31.0225 53.4327 33.9565 51.5135C36.9698 49.5944 40.3399 48.6348 44.0669 48.6348C47.8731 48.6348 51.2432 49.5944 54.1772 51.5135C56.9335 53.3165 59.1292 55.8358 60.741 58.7574C61.2791 59.7327 62.4611 60.1302 63.3892 59.5663L72.0935 54.2781C72.9497 53.7579 73.2626 52.613 72.7516 51.7224C70.0298 46.9788 66.351 42.9882 61.7897 40.1239Z" fill="black"/>
<path d="M55.0639 89.569C54.2833 90.1495 54.2716 91.431 55.0993 91.9339L64.4133 97.5922C65.3087 98.1362 66.4395 98.0341 67.1858 97.2811C69.3614 95.0859 71.2087 92.5761 72.7556 89.8546C73.2631 88.9618 72.9503 87.817 72.0941 87.2969L63.4433 82.0423C62.5076 81.474 61.3159 81.8828 60.7792 82.8694C59.3476 85.5015 57.4155 87.8203 55.0639 89.569Z" fill="black"/>
<path d="M23.8461 99.8436C23.8461 98.6182 25.3987 98.0278 26.2436 98.8711C28.1754 100.799 30.4292 102.369 33.0049 103.58C36.8112 105.332 40.9346 106.208 45.3753 106.208C48.5707 106.208 51.5862 105.796 54.4219 104.972C55.4167 104.683 55.5367 103.313 54.6429 102.77L13.7441 77.9236C12.5245 77.1827 11 78.1088 11 79.5907V97.6194C11 98.7654 11.581 99.8245 12.5241 100.398L21.5592 105.888C22.5755 106.506 23.8461 105.734 23.8461 104.499V99.8436Z" fill="black"/>
<path d="M120.477 63H127.407C129.313 63 130.802 62.5527 131.873 61.658C132.943 60.7633 133.479 59.5093 133.479 57.896C133.479 57.1773 133.347 56.5027 133.083 55.872C132.833 55.2267 132.349 54.6547 131.631 54.156C132.041 53.76 132.335 53.3273 132.511 52.858C132.701 52.3887 132.797 51.9047 132.797 51.406C132.797 49.8953 132.32 48.722 131.367 47.886C130.428 47.0353 129.108 46.61 127.407 46.61H120.477V63ZM123.887 52.77V49.47H127.649C128.177 49.47 128.595 49.624 128.903 49.932C129.225 50.2253 129.387 50.6213 129.387 51.12C129.387 51.6187 129.225 52.022 128.903 52.33C128.595 52.6233 128.177 52.77 127.649 52.77H123.887ZM123.887 60.03V55.74H127.803C128.492 55.74 129.042 55.938 129.453 56.334C129.863 56.73 130.069 57.2507 130.069 57.896C130.069 58.5267 129.863 59.04 129.453 59.436C129.042 59.832 128.492 60.03 127.803 60.03H123.887ZM139.846 63H150.868V60.03H143.256V56.268H150.428V53.298H143.256V49.58H150.868V46.61H139.846V63ZM159.929 63H163.339V49.58H167.431V46.61H155.771V49.58H159.929V63ZM176.248 63H179.658V49.58H183.75V46.61H172.09V49.58H176.248V63ZM189.618 63H200.64V60.03H193.028V56.268H200.2V53.298H193.028V49.58H200.64V46.61H189.618V63ZM206.754 63H210.164V57.06H212.584L215.906 63H219.734L215.994 56.466C216.859 56.07 217.548 55.4833 218.062 54.706C218.575 53.914 218.832 52.9607 218.832 51.846C218.832 50.702 218.582 49.7413 218.084 48.964C217.585 48.1867 216.896 47.6 216.016 47.204C215.15 46.808 214.153 46.61 213.024 46.61H206.754V63ZM210.164 54.09V49.58H213.046C213.764 49.58 214.336 49.7853 214.762 50.196C215.202 50.6067 215.422 51.1567 215.422 51.846C215.422 52.5207 215.202 53.0633 214.762 53.474C214.336 53.8847 213.764 54.09 213.046 54.09H210.164ZM108.648 90.264C109.836 90.264 110.899 90.066 111.838 89.67C112.791 89.274 113.598 88.746 114.258 88.086C114.918 87.426 115.387 86.6927 115.666 85.886L112.652 84.434C112.373 85.226 111.882 85.886 111.178 86.414C110.489 86.9273 109.645 87.184 108.648 87.184C107.68 87.184 106.829 86.9567 106.096 86.502C105.363 86.0473 104.791 85.4167 104.38 84.61C103.984 83.8033 103.786 82.8647 103.786 81.794C103.786 80.7233 103.984 79.792 104.38 79C104.791 78.1933 105.363 77.5627 106.096 77.108C106.829 76.6533 107.68 76.426 108.648 76.426C109.645 76.426 110.489 76.69 111.178 77.218C111.882 77.7313 112.373 78.384 112.652 79.176L115.666 77.724C115.387 76.9173 114.918 76.184 114.258 75.524C113.598 74.864 112.791 74.336 111.838 73.94C110.899 73.544 109.836 73.346 108.648 73.346C107.46 73.346 106.36 73.5587 105.348 73.984C104.351 74.3947 103.478 74.9813 102.73 75.744C101.982 76.492 101.403 77.3867 100.992 78.428C100.581 79.4547 100.376 80.5767 100.376 81.794C100.376 83.0113 100.581 84.1333 100.992 85.16C101.417 86.1867 102.004 87.0813 102.752 87.844C103.5 88.6067 104.373 89.2007 105.37 89.626C106.382 90.0513 107.475 90.264 108.648 90.264ZM122.034 90H132.374V87.03H125.444V73.61H122.034V90ZM138.245 90H141.655V73.61H138.245V90ZM148.742 90H152.152V79.198L157.102 85.82H157.542L162.492 79.44V90H165.902V73.61H162.602L157.388 80.716L152.042 73.61H148.742V90ZM172.988 90H179.918C181.825 90 183.314 89.5527 184.384 88.658C185.455 87.7633 185.99 86.5093 185.99 84.896C185.99 84.1773 185.858 83.5027 185.594 82.872C185.345 82.2267 184.861 81.6547 184.142 81.156C184.553 80.76 184.846 80.3273 185.022 79.858C185.213 79.3887 185.308 78.9047 185.308 78.406C185.308 76.8953 184.832 75.722 183.878 74.886C182.94 74.0353 181.62 73.61 179.918 73.61H172.988V90ZM176.398 79.77V76.47H180.16C180.688 76.47 181.106 76.624 181.414 76.932C181.737 77.2253 181.898 77.6213 181.898 78.12C181.898 78.6187 181.737 79.022 181.414 79.33C181.106 79.6233 180.688 79.77 180.16 79.77H176.398ZM176.398 87.03V82.74H180.314C181.004 82.74 181.554 82.938 181.964 83.334C182.375 83.73 182.58 84.2507 182.58 84.896C182.58 85.5267 182.375 86.04 181.964 86.436C181.554 86.832 181.004 87.03 180.314 87.03H176.398ZM192.358 90H195.768V73.61H192.358V90ZM202.854 90H206.264V80.034L213.634 90H216.274V73.61H212.864V83.356L205.472 73.61H202.854V90ZM231.238 90.264C232.177 90.264 233.101 90.11 234.01 89.802C234.934 89.4793 235.763 88.9953 236.496 88.35C237.244 87.69 237.838 86.8687 238.278 85.886C238.718 84.8887 238.938 83.7227 238.938 82.388V80.65H231.15V83.51H235.528V83.554C235.528 84.3167 235.323 84.9693 234.912 85.512C234.516 86.0547 233.988 86.4727 233.328 86.766C232.683 87.0447 231.986 87.184 231.238 87.184C230.27 87.184 229.412 86.9567 228.664 86.502C227.931 86.0473 227.352 85.4167 226.926 84.61C226.501 83.8033 226.288 82.8647 226.288 81.794C226.288 80.7233 226.486 79.792 226.882 79C227.293 78.1933 227.865 77.5627 228.598 77.108C229.332 76.6533 230.182 76.426 231.15 76.426C232.148 76.426 232.991 76.69 233.68 77.218C234.384 77.7313 234.876 78.384 235.154 79.176L238.168 77.724C237.89 76.9173 237.42 76.184 236.76 75.524C236.1 74.864 235.294 74.336 234.34 73.94C233.402 73.544 232.338 73.346 231.15 73.346C229.962 73.346 228.862 73.5587 227.85 73.984C226.853 74.3947 225.98 74.9813 225.232 75.744C224.484 76.492 223.905 77.3867 223.494 78.428C223.084 79.4547 222.878 80.5767 222.878 81.794C222.878 83.0113 223.091 84.1333 223.516 85.16C223.942 86.1867 224.536 87.0813 225.298 87.844C226.061 88.6067 226.948 89.2007 227.96 89.626C228.972 90.0513 230.065 90.264 231.238 90.264Z" fill="black"/>
</svg>
