<svg viewBox="0 0 500 500" xmlns="http://www.w3.org/2000/svg">
  <path fill="currentColor" d="M351.9 166a152.6 152.6 0 0 0-80.8-21.6 144 144 0 0 0-59 11.7c-12.3 5.2-23.2 11.8-32.6 20-4.2 3.7-11.4 1-11.4-4.6v-106a15 15 0 0 0-7.5-13l-45.1-26a9 9 0 0 0-13.5 7.7v240.1a15 15 0 0 0 7.5 13l46.7 27c5.2 3 11.8-1.2 12-7.2.2-17.7 4-35.3 12.2-51a98.2 98.2 0 0 1 34.5-36.8 94.2 94.2 0 0 1 49.8-13.5c18.7 0 35.3 4.5 49.7 13.5a96.4 96.4 0 0 1 32.3 33.8 9.6 9.6 0 0 0 13 3.8l42.9-24.7a8.7 8.7 0 0 0 3.2-12 157 157 0 0 0-54-54.2ZM318.8 397.2c-3.9 2.7-4 8.7.2 11l45.8 26.5c4.4 2.6 10 2 13.6-1.4 10.7-10.3 19.8-22 27.4-34.8 2.5-4.1 1-9.5-3.2-12L360 362a9.7 9.7 0 0 0-13.1 3.9 97.5 97.5 0 0 1-28.1 31.3ZM165.2 445.2c0-5.7 7.6-8.4 11.8-4.5 9.5 9 20.6 16.3 33.3 22C229 471 249.3 475 271 475c15.7 0 30.6-2 44.5-5.8 5-1.3 5.5-7.7 1.1-10.3L115.5 342.8a9 9 0 0 0-13.5 7.8v84.2a15 15 0 0 0 7.5 13l44.4 25.7c5 2.9 11.3-.7 11.3-6.5v-21.8Z"/>
</svg>