<?xml version="1.0" standalone="no"?>
<!DOCTYPE svg PUBLIC "-//W3C//DTD SVG 20010904//EN"
 "http://www.w3.org/TR/2001/REC-SVG-20010904/DTD/svg10.dtd">
<svg version="1.0" xmlns="http://www.w3.org/2000/svg"
 width="700.000000pt" height="700.000000pt" viewBox="0 0 700.000000 700.000000"
 preserveAspectRatio="xMidYMid meet">
<metadata>
Created by potrace 1.14, written by Peter Selinger 2001-2017
</metadata>
<g transform="translate(0.000000,700.000000) scale(0.100000,-0.100000)"
fill="#000000" stroke="none">
<path d="M1516 6640 c-36 -11 -66 -38 -78 -70 -6 -16 -9 -668 -9 -1742 0
-1707 0 -1717 20 -1755 11 -21 26 -45 33 -54 13 -16 174 -119 186 -119 4 0 23
-11 42 -23 19 -13 58 -36 85 -52 28 -15 124 -70 214 -122 90 -52 178 -101 195
-108 40 -16 84 -4 119 33 23 24 27 38 32 107 20 346 103 603 270 834 62 86
166 198 240 256 28 22 52 42 55 45 45 45 247 147 367 185 189 61 492 79 678
40 44 -9 90 -18 102 -21 45 -9 170 -57 238 -91 199 -101 361 -246 502 -455
116 -170 142 -176 321 -73 558 322 544 313 562 360 21 55 -5 112 -139 295
-121 167 -334 372 -516 496 -236 162 -534 285 -810 334 -38 7 -79 14 -90 16
-136 25 -534 25 -680 -1 -366 -64 -639 -183 -918 -400 -33 -25 -69 -45 -83
-45 -33 0 -80 25 -90 47 -4 10 -8 367 -9 794 l-2 776 -22 47 c-28 57 -47 72
-241 183 -85 50 -231 133 -323 187 -174 100 -202 111 -251 96z"/>
<path d="M1510 2209 c-34 -14 -61 -39 -72 -69 -6 -15 -9 -269 -9 -648 0 -590
1 -624 19 -665 11 -23 30 -52 43 -64 20 -18 221 -139 409 -245 25 -14 93 -53
152 -87 131 -76 155 -84 196 -64 58 28 63 46 63 236 0 196 9 231 63 246 49 13
76 3 136 -47 30 -26 57 -49 60 -53 21 -26 197 -139 297 -190 105 -54 325 -133
428 -153 224 -44 290 -51 505 -51 222 0 303 8 495 47 131 26 160 39 172 75 24
67 26 65 -516 378 -276 160 -548 316 -604 347 -56 32 -109 62 -117 67 -25 17
-172 102 -230 134 -30 17 -83 48 -118 69 -34 21 -64 38 -66 38 -3 0 -40 21
-83 46 -81 48 -658 382 -961 556 -175 101 -217 116 -262 97z"/>
<path d="M4924 1936 c-31 -14 -73 -62 -114 -131 -58 -99 -180 -231 -317 -344
-35 -29 -64 -59 -64 -69 -4 -40 2 -78 14 -89 16 -16 654 -385 694 -402 38 -15
95 -8 138 19 55 34 188 184 291 328 104 144 128 189 128 239 1 41 -4 49 -40
82 -23 20 -59 45 -80 57 -72 39 -139 77 -149 84 -5 4 -46 28 -90 53 -44 24
-136 76 -205 116 -128 73 -153 80 -206 57z"/>
</g>
</svg>
